<?xml version="1.0" encoding="UTF-8" standalone="no"?>
<!-- Created with Inkscape (http://www.inkscape.org/) -->

<svg
   width="60.407898mm"
   height="66.518188mm"
   viewBox="0 0 60.407898 66.518188"
   version="1.1"
   id="svg5"
   inkscape:export-filename="Documents/mockup-main2.png"
   inkscape:export-xdpi="96"
   inkscape:export-ydpi="96"
   xml:space="preserve"
   inkscape:version="1.2.1 (9c6d41e, 2022-07-14)"
   sodipodi:docname="mockup cueca tradicional.svg"
   xmlns:inkscape="http://www.inkscape.org/namespaces/inkscape"
   xmlns:sodipodi="http://sodipodi.sourceforge.net/DTD/sodipodi-0.dtd"
   xmlns="http://www.w3.org/2000/svg"
   xmlns:svg="http://www.w3.org/2000/svg"><sodipodi:namedview
     id="namedview7"
     pagecolor="#ffffff"
     bordercolor="#000000"
     borderopacity="0.25"
     inkscape:showpageshadow="2"
     inkscape:pageopacity="0.0"
     inkscape:pagecheckerboard="0"
     inkscape:deskcolor="#d1d1d1"
     inkscape:document-units="mm"
     showgrid="false"
     inkscape:zoom="1.0468052"
     inkscape:cx="341.03765"
     inkscape:cy="-550.24562"
     inkscape:window-width="1920"
     inkscape:window-height="1022"
     inkscape:window-x="0"
     inkscape:window-y="30"
     inkscape:window-maximized="1"
     inkscape:current-layer="layer1" /><defs
     id="defs2" /><g
     inkscape:label="Capa 1"
     inkscape:groupmode="layer"
     id="layer1"
     transform="translate(-664.85182,379.67852)"><g
       id="g685"
       inkscape:label="borde play"
       transform="translate(-214.33469,1.9125631)"><path
         style="fill:#000000;fill-opacity:1;fill-rule:nonzero;stroke:none;stroke-width:0.264583"
         id="path682"
         d="m 938.94429,-344.51277 c -3.66959,-1.07486 -7.05707,-2.81042 -10.35607,-4.71167 -6.1553,-4.18612 -11.503,-9.4232 -17.12837,-14.27342 -5.04956,-4.35402 -10.4667,-8.24823 -15.62557,-12.46754 -1.78877,-1.60768 -3.68253,-3.08185 -5.59507,-4.5358 -0.87504,-0.66522 -0.98067,-0.7142 -0.57171,-0.48373 -0.55797,-1.21384 -2.2746,-0.42475 -1.71663,0.78909 v 0 c 0.61118,0.93568 1.3346,1.31267 2.22571,1.99234 1.53761,1.17279 3.00147,2.4343 4.46965,3.69194 5.14954,4.20466 10.55591,8.08557 15.59432,12.42732 5.71261,4.92922 11.14209,10.25487 17.41212,14.48453 3.37608,1.94244 6.83879,3.73145 10.5902,4.84049 1.23995,0.49597 1.94137,-1.25757 0.70142,-1.75355 z" /><path
         style="fill:#000000;fill-opacity:1;fill-rule:nonzero;stroke:none;stroke-width:0.264583"
         id="path684"
         d="m 933.65891,-346.64775 c -6.33195,3.22142 -12.72228,6.31235 -19.1995,9.23098 -7.26222,3.14161 -14.5679,6.17762 -21.61762,9.77888 -3.96525,1.93984 -7.48601,4.5873 -10.97867,7.24958 -0.58776,0.45753 -1.21711,0.71658 -1.92408,0.89425 -1.28792,0.35148 -0.79085,2.17287 0.49707,1.82139 v 0 c 0.92789,-0.26602 1.79596,-0.61597 2.5693,-1.21891 3.40047,-2.59836 6.82481,-5.18745 10.68954,-7.07786 7.01938,-3.59291 14.29734,-6.61615 21.52983,-9.74868 6.46628,-2.91341 12.84969,-5.99216 19.17773,-9.19456 1.22687,-0.52581 0.48328,-2.26087 -0.7436,-1.73507 z" /><path
         style="fill:#000000;fill-opacity:1;fill-rule:nonzero;stroke:none;stroke-width:0.264583"
         id="path686"
         d="m 896.17844,-381.5234 c -0.69733,0.32351 -1.56803,0.53864 -2.14192,1.0895 -1.55901,1.49644 -1.93111,4.12279 -2.48457,6.06543 -2.43727,9.95305 -3.91249,20.10501 -5.45703,30.22474 -1.27776,8.5146 -2.46153,17.04343 -3.96634,25.52176 -0.0912,0.491 -0.3581,1.99676 -0.51163,2.62883 -0.0286,0.11794 -0.22428,0.28695 -0.11749,0.34463 0.55717,0.30095 1.20803,0.38044 1.81204,0.57066 0.58077,-1.20372 -1.12156,-2.02505 -1.70232,-0.82133 v 0 c 0.56291,0.27542 1.0695,0.72989 1.68873,0.82625 0.1007,0.0157 0.65484,-3.04572 0.67984,-3.22272 1.49052,-8.49539 2.67298,-17.03879 3.95436,-25.56742 1.53541,-10.04194 2.99643,-20.117 5.42194,-29.99246 0.21837,-0.76794 0.9263,-4.1564 1.72316,-5.00424 0.38465,-0.40927 1.00524,-0.53152 1.47164,-0.81156 1.30961,-0.26192 0.9392,-2.11399 -0.37041,-1.85207 z" /></g></g></svg>
