<?xml version="1.0" encoding="UTF-8" standalone="no"?>
<!-- Created with Inkscape (http://www.inkscape.org/) -->

<svg
   width="134.1427mm"
   height="142.32431mm"
   viewBox="0 0 134.1427 142.32431"
   version="1.1"
   id="svg5"
   inkscape:export-filename="Documents/mockup-main2.png"
   inkscape:export-xdpi="96"
   inkscape:export-ydpi="96"
   xml:space="preserve"
   inkscape:version="1.2.1 (9c6d41e, 2022-07-14)"
   sodipodi:docname="mockup cueca tradicional.svg"
   xmlns:inkscape="http://www.inkscape.org/namespaces/inkscape"
   xmlns:sodipodi="http://sodipodi.sourceforge.net/DTD/sodipodi-0.dtd"
   xmlns="http://www.w3.org/2000/svg"
   xmlns:svg="http://www.w3.org/2000/svg"><sodipodi:namedview
     id="namedview7"
     pagecolor="#ffffff"
     bordercolor="#000000"
     borderopacity="0.25"
     inkscape:showpageshadow="2"
     inkscape:pageopacity="0.0"
     inkscape:pagecheckerboard="0"
     inkscape:deskcolor="#d1d1d1"
     inkscape:document-units="mm"
     showgrid="false"
     inkscape:zoom="1.0468052"
     inkscape:cx="341.03765"
     inkscape:cy="-550.24562"
     inkscape:window-width="1920"
     inkscape:window-height="1022"
     inkscape:window-x="0"
     inkscape:window-y="30"
     inkscape:window-maximized="1"
     inkscape:current-layer="layer1" /><defs
     id="defs2" /><g
     inkscape:label="Capa 1"
     inkscape:groupmode="layer"
     id="layer1"
     transform="translate(-842.0674,416.64815)"><path
       sodipodi:type="star"
       style="fill:#3f9087;stroke:#ffffff;stroke-width:0.264583"
       id="path664"
       inkscape:flatsided="true"
       sodipodi:sides="6"
       sodipodi:cx="54.773746"
       sodipodi:cy="99.588631"
       sodipodi:r1="54.667263"
       sodipodi:r2="47.343239"
       sodipodi:arg1="0.35344023"
       sodipodi:arg2="0.87703901"
       inkscape:rounded="0"
       inkscape:randomized="0"
       d="M 106.06189,118.51047 64.031025,153.46639 12.742881,134.54455 3.4856032,80.666791 45.516468,45.710876 96.804612,64.632715 Z"
       inkscape:transform-center-y="-4.6414448e-06"
       transform="matrix(1.2069044,0,0,1.2069044,845.59569,-466.61336)"
       inkscape:transform-center-x="1.3245432e-06"
       inkscape:export-filename="moclup-main2.png"
       inkscape:export-xdpi="96"
       inkscape:export-ydpi="96"
       inkscape:label="hexagono" /><g
       id="g785"
       inkscape:label="borde"
       inkscape:export-filename="hex+borde.png"
       inkscape:export-xdpi="96"
       inkscape:export-ydpi="96"><path
         style="fill:#000000;fill-opacity:1;fill-rule:nonzero;stroke:none;stroke-width:0.319326"
         id="path666"
         d="m 843.30683,-366.14215 c 6.33419,-3.82798 12.22955,-8.36376 18.16309,-12.77846 8.8264,-6.69966 17.29274,-13.85384 25.96516,-20.74791 4.40574,-3.55613 8.84863,-7.06911 13.44858,-10.37178 1.69833,-1.27033 3.46909,-2.43792 5.17576,-3.69632 0.46855,-0.3551 0.94289,-0.70372 1.39573,-1.079 0.54276,-0.35758 -1.37902,-1.37664 -1.44415,-0.33003 -0.002,0.0234 -0.004,0.0469 -0.005,0.0704 0.28641,-0.27714 0.57281,-0.55427 0.85922,-0.8314 -1.18456,-0.46711 -1.84514,1.2081 -0.6606,1.67521 v 0 c 0.52657,-0.18243 1.05313,-0.36485 1.5797,-0.54728 0.0121,-0.086 0.021,-0.17226 0.0255,-0.25902 0.0465,-0.7969 -0.51075,-0.98675 -1.5087,-1.1628 -0.42367,0.35538 -0.87177,0.68078 -1.31057,1.01682 -1.69885,1.25603 -3.4638,2.41884 -5.15407,3.68718 -4.61996,3.32456 -9.08017,6.86234 -13.50784,10.43747 -8.65365,6.88677 -17.10201,14.03277 -25.9176,20.71517 -5.78732,4.30184 -11.55232,8.67417 -17.67394,12.4938 -1.20773,0.40257 -0.6384,2.11056 0.56933,1.70798 z" /><path
         style="fill:#000000;fill-opacity:1;fill-rule:nonzero;stroke:none;stroke-width:0.319326"
         id="path668"
         d="m 844.86653,-376.8765 c 1.29774,6.19475 2.35635,12.43767 3.38804,18.68159 1.17541,7.67812 2.73792,15.28926 3.9324,22.96334 1.03766,6.54823 2.036,13.10217 3.16637,19.63529 0.7966,4.05431 1.48713,8.12729 2.2454,12.18875 0.51209,2.66312 1.21093,5.28928 2.02117,7.87616 0.3561,0.47347 0.0823,2.22346 0.478,0.56148 -1.03516,0.74254 0.015,2.20647 1.05013,1.46392 v 0 c 0.72564,-1.33276 0.62032,-1.15994 0.18718,-2.56347 -0.7911,-2.51813 -1.4756,-5.07428 -1.97418,-7.66742 -0.75821,-4.05352 -1.44746,-8.11883 -2.24598,-12.1648 -1.13273,-6.52228 -2.13306,-13.06549 -3.16605,-19.60405 -1.19422,-7.67965 -2.76557,-15.29469 -3.93939,-22.97866 -1.03591,-6.29271 -2.10469,-12.58298 -3.39722,-18.82859 -0.30863,-1.23452 -2.0545,-0.79806 -1.74587,0.43646 z" /><path
         style="fill:#000000;fill-opacity:1;fill-rule:nonzero;stroke:none;stroke-width:0.319326"
         id="path670"
         d="m 846.94429,-306.95956 c 5.86761,1.68577 11.90201,2.67432 17.88743,3.83184 7.3057,1.46837 14.62877,2.90503 21.76526,5.07747 3.64631,1.10999 4.09599,1.33558 7.5015,2.61279 5.19994,2.18876 10.71777,3.34524 16.18728,4.61859 4.93309,1.12061 9.89183,2.12069 14.82974,3.21954 2.36572,0.73886 5.00126,0.9749 7.00236,2.54458 -0.46292,-0.29988 -0.28564,-0.10959 -0.54905,-0.55424 -1.0334,0.74184 0.0157,2.20329 1.04913,1.46144 v 0 c 1.20934,-1.4578 1.08138,-0.66389 0.58583,-2.34027 -2.26266,-1.6723 -5.0323,-2.13116 -7.69961,-2.86172 -4.93277,-1.09303 -9.88637,-2.08742 -14.81266,-3.2096 -5.39384,-1.25943 -10.83841,-2.39086 -15.96834,-4.54759 -3.47043,-1.29596 -3.93025,-1.52555 -7.63862,-2.64995 -7.18785,-2.17941 -14.56018,-3.62868 -21.91483,-5.11404 -5.90778,-1.14869 -11.86542,-2.12549 -17.6561,-3.79683 -1.20772,-0.40257 -1.77705,1.3054 -0.56932,1.70799 z" /><path
         style="fill:#000000;fill-opacity:1;fill-rule:nonzero;stroke:none;stroke-width:0.319326"
         id="path672"
         d="m 905.49816,-274.57211 c 4.14479,-3.63762 8.28129,-7.2841 12.38656,-10.96648 7.96036,-7.59472 16.12174,-14.95217 24.55194,-22.02127 6.94396,-5.49872 14.63259,-9.93415 22.39417,-14.15594 2.14659,-1.22077 4.26962,-2.4662 6.47489,-3.57663 1.4479,-0.9222 3.05101,-1.60499 4.43396,-2.62758 0.82225,-0.49347 0.38272,-1.55662 0.0597,-2.26792 -0.53914,-1.15223 -2.16865,-0.38978 -1.62951,0.76245 v 0 c 0.11586,0.24252 0.0806,0.75764 0.34771,0.72758 0.23191,-0.0261 0.48212,-1.14896 0.14258,-0.66362 -1.28258,0.97739 -2.82009,1.576 -4.16232,2.46343 -2.22399,1.11787 -4.36185,2.3765 -6.52306,3.61178 -7.85755,4.29112 -15.64177,8.79643 -22.67653,14.3694 -8.44258,7.08414 -16.62204,14.45109 -24.60254,22.05243 -4.09035,3.66654 -8.212,7.29704 -12.34985,10.90974 -0.97766,0.81472 0.17454,2.19735 1.15221,1.38263 z" /><path
         style="fill:#000000;fill-opacity:1;fill-rule:nonzero;stroke:none;stroke-width:0.319326"
         id="path674"
         d="m 956.38843,-404.81723 c -0.3033,0.57696 -0.53776,0.95013 -0.67984,1.63398 -0.58545,2.81788 0.22184,7.09916 0.56635,9.85829 1.50767,11.45801 4.07179,22.73364 6.0001,34.11997 1.43709,9.07337 2.19125,18.23387 3.25763,27.35403 0.24733,2.41822 0.58401,4.82701 0.97817,7.22545 0.0772,0.47033 0.18115,0.93634 0.24757,1.40832 0.0267,0.18992 -0.15159,0.63162 0.0315,0.57449 0.48104,-0.15011 0.78342,-0.63401 1.17512,-0.95102 -1.07622,-0.68159 -2.04013,0.84042 -0.96391,1.522 v 0 c 0.52796,-0.23071 1.16748,-0.29391 1.58388,-0.69213 0.18512,-0.17704 -0.023,-0.51258 -0.059,-0.76618 -0.0653,-0.46025 -0.16851,-0.91439 -0.24469,-1.37298 -0.3946,-2.37503 -0.73,-4.76082 -0.97657,-7.15596 -1.07823,-9.14904 -1.83814,-18.33923 -3.28572,-27.4414 -1.92441,-11.36027 -4.48344,-22.61035 -5.97606,-34.04398 -0.28229,-2.28924 -1.05771,-6.66866 -0.63228,-9.06051 0.0963,-0.54136 0.28176,-0.82637 0.52175,-1.28598 0.65506,-1.09176 -0.88892,-2.01815 -1.54398,-0.92639 z" /><path
         style="fill:#000000;fill-opacity:1;fill-rule:nonzero;stroke:none;stroke-width:0.319326"
         id="path676"
         d="m 896.94721,-415.12448 c 0.31988,0.28094 0.62081,0.58505 0.95964,0.84282 1.44003,1.09549 2.94096,2.00786 4.47937,2.96316 3.24119,2.01267 6.53455,3.87451 9.89813,5.67408 4.90355,2.44204 9.73548,5.05611 14.76434,7.23903 2.87078,1.24615 5.04772,2.03559 7.96038,3.1421 6.42751,2.23623 12.85276,4.57276 19.47653,6.16343 4.03779,0.8417 8.17061,1.1018 12.19113,2.02751 1.53114,0.33724 1.49257,0.15306 2.10624,-1.16861 0.12935,-1.26685 -1.66225,-1.44978 -1.7916,-0.18293 v 0 c 0.13781,-0.11164 0.24721,-0.27295 0.4134,-0.33478 0.014,-0.005 1.51801,0.27579 -0.32747,-0.0652 -4.01753,-0.91296 -8.13965,-1.19223 -12.17551,-2.01303 -6.55147,-1.56605 -12.90262,-3.88764 -19.26099,-6.09022 -2.87256,-1.09002 -5.01771,-1.86648 -7.8468,-3.09465 -4.99651,-2.1691 -9.79789,-4.76563 -14.66974,-7.19252 -5.08826,-2.72229 -10.22373,-5.52205 -14.79442,-9.06237 -0.81472,-0.97767 -2.19735,0.17452 -1.38263,1.15219 z" /></g><circle
       id="circle678"
       style="fill:#000000;stroke:#000000;stroke-width:0.264583"
       cx="863.13995"
       cy="-388.8403"
       r="0.025922501" /><circle
       id="circle688"
       style="fill:#000000;stroke:#000000;stroke-width:0.264583"
       cx="880.70929"
       cy="-397.98999"
       r="0.02942385" /></g></svg>
